<?xml version="1.0" encoding="UTF-8"?> <svg xmlns="http://www.w3.org/2000/svg" width="162" height="37" viewBox="0 0 162 37" fill="none"><g clip-path="url(#clip0_286_45)"><path d="M12.718 37C10.0829 36.3148 7.79548 35.1608 5.89236 33.5019C3.98924 31.8431 2.5253 29.7515 1.51884 27.2271C0.512379 24.6847 0 21.7817 0 18.5C0 15.2183 0.512379 12.3153 1.51884 9.7729C2.5253 7.23051 3.98924 5.13889 5.89236 3.49805C7.79548 1.83918 10.0829 0.685185 12.718 0V3.80458C10.9246 4.52583 9.40581 5.55361 8.14316 6.86988C6.89882 8.18616 5.92896 9.827 5.27018 11.7744C4.61141 13.7217 4.26372 15.9576 4.26372 18.5C4.26372 22.2505 4.99569 25.3699 6.47793 27.8402C7.94187 30.3104 10.028 32.0955 12.718 33.1954V37Z" fill="#0A0A0A"></path><path d="M31.7675 28.2188C31.7675 27.3894 31.8041 26.6141 31.9139 25.9289C32.0054 25.2437 32.1335 24.4684 32.3348 23.6029H31.8224C31.3649 24.7749 30.5415 25.7305 29.3703 26.4698C28.1992 27.2091 26.6986 27.5697 24.8504 27.5697C23.2218 27.5697 21.7944 27.2271 20.5684 26.5239C19.3423 25.8207 18.3725 24.7929 17.6954 23.4586C17 22.1063 16.6523 20.4835 16.6523 18.5902C16.6523 16.6969 17 15.0921 17.6954 13.7398C18.3908 12.3875 19.3423 11.3416 20.5684 10.6384C21.7944 9.91718 23.2218 9.57459 24.8504 9.57459C26.6803 9.57459 28.1992 9.95325 29.3703 10.7106C30.5415 11.4679 31.3649 12.4235 31.8224 13.5775H32.3348C32.1518 12.7661 32.0054 12.0088 31.9139 11.3236C31.8224 10.6384 31.7675 9.86309 31.7675 8.99759V3.38989H36.2142V8.96153C36.2142 9.82703 36.1776 10.6024 36.0678 11.2876C35.9763 11.9727 35.8483 12.73 35.647 13.5415H36.1593C36.6168 12.3875 37.4403 11.4318 38.6114 10.6745C39.7826 9.91718 41.2831 9.53853 43.1314 9.53853C44.76 9.53853 46.1873 9.89915 47.4134 10.6024C48.6394 11.3236 49.6093 12.3514 50.2864 13.7037C50.9817 15.0561 51.3294 16.6789 51.3294 18.5541C51.3294 20.4294 50.9817 22.0882 50.2864 23.4225C49.591 24.7749 48.6394 25.7846 47.4134 26.4878C46.1873 27.1911 44.76 27.5337 43.1314 27.5337C41.3014 27.5337 39.7826 27.173 38.6114 26.4338C37.4403 25.6945 36.6168 24.7388 36.1593 23.5668H35.647C35.83 24.4323 35.9763 25.2076 36.0678 25.8928C36.1593 26.578 36.2142 27.3533 36.2142 28.1828V33.7184H31.7675V28.1828V28.2188ZM26.3875 24.2159C27.5221 24.2159 28.492 23.9815 29.3154 23.5127C30.1389 23.0439 30.7794 22.3948 31.2368 21.5473C31.6943 20.6998 31.9322 19.7081 31.9322 18.5722C31.9322 16.8592 31.4381 15.4888 30.4317 14.461C29.4252 13.4513 28.0894 12.9284 26.3875 12.9284C25.2896 12.9284 24.3197 13.1628 23.478 13.6316C22.6362 14.1004 21.9957 14.7495 21.5382 15.597C21.0808 16.4445 20.8429 17.4362 20.8429 18.5722C20.8429 19.7081 21.0808 20.6998 21.5382 21.5473C21.9957 22.3948 22.6545 23.0439 23.478 23.5127C24.3197 23.9815 25.2896 24.2159 26.3875 24.2159ZM41.5759 24.2159C42.6739 24.2159 43.6437 23.9815 44.4672 23.5127C45.2907 23.0439 45.9494 22.3948 46.4069 21.5473C46.8827 20.6998 47.1206 19.7081 47.1206 18.5722C47.1206 17.4362 46.8827 16.4445 46.4069 15.597C45.9311 14.7495 45.2907 14.1004 44.4672 13.6316C43.6437 13.1628 42.6739 12.9284 41.5759 12.9284C40.478 12.9284 39.4715 13.1628 38.648 13.6316C37.8246 14.1004 37.1841 14.7495 36.7266 15.597C36.2691 16.4445 36.0312 17.4362 36.0312 18.5722C36.0312 20.2851 36.5253 21.6555 37.5318 22.6833C38.5382 23.693 39.8741 24.2159 41.5759 24.2159Z" fill="#0A0A0A"></path><path d="M55.2637 33.1954C57.057 32.4742 58.5759 31.4464 59.8202 30.1301C61.0646 28.8138 62.0344 27.173 62.6932 25.2256C63.352 23.2783 63.6997 21.0424 63.6997 18.5C63.6997 14.7495 62.9677 11.6301 61.5038 9.15984C60.0398 6.68957 57.9537 4.90448 55.2454 3.78655V0C57.8805 0.685185 60.1679 1.83918 62.071 3.49805C63.9742 5.15692 65.4381 7.24854 66.4629 9.7729C67.4876 12.3153 68 15.2183 68 18.5C68 21.7817 67.4876 24.6847 66.4629 27.2271C65.4381 29.7695 63.9742 31.8611 62.071 33.5019C60.1679 35.1608 57.8805 36.3148 55.2454 37V33.1954H55.2637Z" fill="#0A0A0A"></path></g><g clip-path="url(#clip1_286_45)"><path d="M77 8.76013V2.13013H79.16L80.78 7.10013H81.04L82.66 2.13013H84.82V8.75013H83.53V3.88013H83.27L81.66 8.75013H80.16L78.55 3.88013H78.29V8.75013H77V8.76013Z" fill="#0A0A0A"></path><path d="M89.73 8.89001C89.12 8.89001 88.56 8.74001 88.06 8.45001C87.56 8.16001 87.17 7.75001 86.88 7.23001C86.59 6.71001 86.45 6.11001 86.45 5.44001C86.45 4.77001 86.6 4.19001 86.88 3.67001C87.17 3.15001 87.56 2.74001 88.06 2.45001C88.56 2.16001 89.11 2.01001 89.73 2.01001C90.31 2.01001 90.84 2.15001 91.32 2.43001C91.8 2.71001 92.18 3.10001 92.46 3.59001C92.74 4.08001 92.88 4.63001 92.88 5.25001C92.88 5.41001 92.88 5.55001 92.86 5.68001C92.85 5.81001 92.83 5.90001 92.81 5.95001H87.74C87.78 6.31001 87.9 6.63001 88.08 6.91001C88.26 7.19001 88.5 7.40001 88.78 7.55001C89.07 7.70001 89.38 7.77001 89.72 7.77001C90.09 7.77001 90.41 7.69001 90.69 7.53001C90.97 7.37001 91.19 7.15001 91.34 6.88001H92.67C92.54 7.27001 92.34 7.61001 92.07 7.91001C91.8 8.21001 91.47 8.45001 91.08 8.63001C90.68 8.81001 90.23 8.90001 89.72 8.90001L89.73 8.89001ZM91.59 4.94001C91.57 4.60001 91.48 4.29001 91.31 4.01001C91.14 3.73001 90.92 3.52001 90.64 3.36001C90.36 3.20001 90.06 3.12001 89.72 3.12001C89.37 3.12001 89.05 3.20001 88.76 3.36001C88.47 3.52001 88.24 3.73001 88.07 4.01001C87.89 4.28001 87.78 4.59001 87.73 4.95001H91.58L91.59 4.94001Z" fill="#0A0A0A"></path><path d="M93.63 10.3401V7.55013H93.74C94.04 7.55013 94.26 7.48013 94.41 7.33013C94.56 7.18013 94.64 6.95013 94.67 6.62013L95.05 2.13013H99.74V7.54013H100.66V10.3301H99.37V8.75013H94.93V10.3301H93.64L93.63 10.3401ZM95.58 7.55013H98.44V3.33013H96.24L95.95 6.65013C95.92 6.88013 95.88 7.07013 95.81 7.24013C95.74 7.40013 95.66 7.51013 95.59 7.55013H95.58Z" fill="#0A0A0A"></path><path d="M102.07 8.76013V2.13013H103.36V6.95013H103.62L105.89 2.13013H107.8V8.75013H106.51V3.94013H106.25L103.98 8.76013H102.07Z" fill="#0A0A0A"></path><path d="M112.5 8.89001C111.92 8.89001 111.4 8.75001 110.93 8.46001C110.46 8.17001 110.1 7.76001 109.82 7.24001C109.54 6.72001 109.41 6.12001 109.41 5.44001C109.41 4.76001 109.55 4.18001 109.82 3.66001C110.09 3.14001 110.46 2.73001 110.93 2.44001C111.4 2.15001 111.92 2.01001 112.5 2.01001C112.94 2.01001 113.33 2.10001 113.67 2.27001C114.01 2.44001 114.3 2.68001 114.54 2.99001H114.61L114.74 2.15001H115.85V8.77001H114.74L114.61 7.93001H114.54C114.3 8.24001 114.02 8.48001 113.68 8.65001C113.34 8.82001 112.95 8.91001 112.5 8.91001V8.89001ZM112.65 7.69001C112.99 7.69001 113.31 7.60001 113.6 7.41001C113.89 7.22001 114.13 6.96001 114.3 6.62001C114.47 6.28001 114.56 5.89001 114.56 5.44001C114.56 4.99001 114.47 4.61001 114.3 4.27001C114.13 3.93001 113.9 3.67001 113.6 3.48001C113.31 3.29001 112.99 3.20001 112.65 3.20001C112.31 3.20001 111.98 3.29001 111.68 3.48001C111.39 3.67001 111.15 3.93001 110.98 4.27001C110.81 4.61001 110.72 5.00001 110.72 5.44001C110.72 5.88001 110.81 6.28001 110.98 6.62001C111.15 6.96001 111.38 7.22001 111.68 7.41001C111.97 7.60001 112.3 7.69001 112.65 7.69001Z" fill="#0A0A0A"></path><path d="M80.28 20.7999C79.67 20.7999 79.11 20.6499 78.61 20.3599C78.11 20.0699 77.72 19.6599 77.43 19.1399C77.14 18.6199 77 18.0199 77 17.3499C77 16.6799 77.14 16.0999 77.43 15.5799C77.72 15.0599 78.11 14.6499 78.61 14.3599C79.11 14.0699 79.67 13.9199 80.28 13.9199C80.89 13.9199 81.44 14.0699 81.94 14.3599C82.44 14.6499 82.83 15.0599 83.12 15.5799C83.41 16.0999 83.55 16.6899 83.55 17.3499C83.55 18.0099 83.41 18.6099 83.12 19.1399C82.83 19.6599 82.44 20.0699 81.94 20.3599C81.44 20.6499 80.89 20.7999 80.28 20.7999ZM80.28 19.5999C80.64 19.5999 80.97 19.5099 81.27 19.3199C81.57 19.1399 81.81 18.8699 81.99 18.5299C82.17 18.1899 82.25 17.7899 82.25 17.3399C82.25 16.8899 82.16 16.5099 81.99 16.1699C81.82 15.8299 81.58 15.5599 81.27 15.3799C80.97 15.1999 80.64 15.0999 80.28 15.0999C79.92 15.0999 79.59 15.1899 79.29 15.3799C78.99 15.5599 78.75 15.8299 78.57 16.1699C78.39 16.5099 78.31 16.8999 78.31 17.3399C78.31 17.7799 78.4 18.1799 78.57 18.5299C78.74 18.8799 78.99 19.1399 79.29 19.3199C79.59 19.4999 79.92 19.5999 80.28 19.5999Z" fill="#0A0A0A"></path><path d="M88.38 20.6698V14.0498H90.54L92.16 19.0198H92.42L94.04 14.0498H96.2V20.6698H94.91V15.7998H94.65L93.04 20.6698H91.54L89.93 15.7998H89.67V20.6698H88.38Z" fill="#0A0A0A"></path><path d="M100.92 20.7999C100.34 20.7999 99.82 20.6599 99.35 20.3699C98.88 20.0799 98.52 19.6699 98.24 19.1499C97.96 18.6299 97.83 18.0299 97.83 17.3499C97.83 16.6699 97.97 16.0899 98.24 15.5699C98.51 15.0499 98.88 14.6399 99.35 14.3499C99.82 14.0599 100.34 13.9199 100.92 13.9199C101.36 13.9199 101.75 14.0099 102.09 14.1799C102.43 14.3499 102.72 14.5899 102.96 14.8999H103.03L103.16 14.0599H104.27V20.6799H103.16L103.03 19.8399H102.96C102.72 20.1499 102.44 20.3899 102.1 20.5599C101.76 20.7299 101.37 20.8199 100.92 20.8199V20.7999ZM101.07 19.5999C101.41 19.5999 101.73 19.5099 102.02 19.3199C102.31 19.1299 102.55 18.8699 102.72 18.5299C102.89 18.1899 102.98 17.7999 102.98 17.3499C102.98 16.8999 102.89 16.5199 102.72 16.1799C102.55 15.8399 102.32 15.5799 102.02 15.3899C101.73 15.1999 101.41 15.1099 101.07 15.1099C100.73 15.1099 100.4 15.1999 100.1 15.3899C99.81 15.5799 99.57 15.8399 99.4 16.1799C99.23 16.5199 99.14 16.9099 99.14 17.3499C99.14 17.7899 99.23 18.1899 99.4 18.5299C99.57 18.8699 99.8 19.1299 100.1 19.3199C100.39 19.5099 100.72 19.5999 101.07 19.5999Z" fill="#0A0A0A"></path><path d="M106.24 23.2999V14.0399H107.36L107.49 14.8799H107.56C107.8 14.5699 108.09 14.3299 108.43 14.1599C108.77 13.9899 109.16 13.8999 109.6 13.8999C110.17 13.8999 110.69 14.0399 111.15 14.3299C111.62 14.6199 111.98 15.0299 112.26 15.5499C112.53 16.0699 112.67 16.6699 112.67 17.3299C112.67 17.9899 112.53 18.6099 112.26 19.1299C111.99 19.6499 111.62 20.0599 111.15 20.3499C110.68 20.6399 110.17 20.7799 109.6 20.7799C109.17 20.7799 108.79 20.6999 108.45 20.5299C108.11 20.3599 107.83 20.1299 107.6 19.8399H107.53V23.2799H106.24V23.2999ZM109.45 19.5999C109.79 19.5999 110.11 19.5099 110.41 19.3199C110.7 19.1299 110.94 18.8699 111.11 18.5299C111.28 18.1899 111.37 17.7999 111.37 17.3499C111.37 16.8999 111.28 16.5199 111.11 16.1799C110.94 15.8399 110.71 15.5799 110.41 15.3899C110.12 15.1999 109.8 15.1099 109.45 15.1099C109.1 15.1099 108.78 15.1999 108.49 15.3899C108.2 15.5799 107.97 15.8399 107.79 16.1799C107.61 16.5199 107.53 16.9099 107.53 17.3499C107.53 17.7899 107.62 18.1899 107.79 18.5299C107.97 18.8699 108.2 19.1299 108.49 19.3199C108.78 19.5099 109.1 19.5999 109.45 19.5999Z" fill="#0A0A0A"></path><path d="M114.3 20.6698V14.0498H115.59V17.0798L118.34 14.0498H119.91L116.92 17.2898L120.04 20.6698H118.47L115.59 17.5098V20.6698H114.3Z" fill="#0A0A0A"></path><path d="M123.61 20.7999C123 20.7999 122.44 20.6499 121.94 20.3599C121.44 20.0699 121.05 19.6599 120.76 19.1399C120.47 18.6199 120.33 18.0199 120.33 17.3499C120.33 16.6799 120.48 16.0999 120.76 15.5799C121.05 15.0599 121.44 14.6499 121.94 14.3599C122.44 14.0699 122.99 13.9199 123.61 13.9199C124.19 13.9199 124.72 14.0599 125.2 14.3399C125.68 14.6199 126.06 15.0099 126.34 15.4999C126.62 15.9899 126.76 16.5399 126.76 17.1599C126.76 17.3199 126.76 17.4599 126.74 17.5899C126.73 17.7199 126.71 17.8099 126.69 17.8599H121.62C121.66 18.2199 121.78 18.5399 121.96 18.8199C122.14 19.0999 122.38 19.3099 122.66 19.4599C122.95 19.6099 123.26 19.6799 123.6 19.6799C123.97 19.6799 124.29 19.5999 124.57 19.4399C124.85 19.2799 125.07 19.0599 125.22 18.7899H126.55C126.42 19.1799 126.22 19.5199 125.95 19.8199C125.68 20.1199 125.35 20.3599 124.96 20.5399C124.56 20.7199 124.11 20.8099 123.6 20.8099L123.61 20.7999ZM125.47 16.8499C125.45 16.5099 125.36 16.1999 125.19 15.9199C125.02 15.6399 124.8 15.4299 124.52 15.2699C124.24 15.1099 123.94 15.0299 123.6 15.0299C123.25 15.0299 122.93 15.1099 122.64 15.2699C122.35 15.4299 122.12 15.6399 121.95 15.9199C121.77 16.1899 121.66 16.4999 121.61 16.8599H125.46L125.47 16.8499Z" fill="#0A0A0A"></path><path d="M129.81 20.6698V15.2398H127.62V14.0398H133.28V15.2398H131.09V20.6698H129.8H129.81Z" fill="#0A0A0A"></path><path d="M134.6 20.6698V14.0498H135.89V18.8698H136.15L138.42 14.0498H140.33V20.6698H139.04V15.8498H138.78L136.51 20.6698H134.6Z" fill="#0A0A0A"></path><path d="M142.3 20.6698V14.0498H143.59V16.7498H146.7V14.0498H148V20.6698H146.7V17.9598H143.59V20.6698H142.3Z" fill="#0A0A0A"></path><path d="M149.98 20.6698V14.0498H154.39V15.2598H151.27V20.6698H149.98Z" fill="#0A0A0A"></path><path d="M158.53 20.7999C157.92 20.7999 157.36 20.6499 156.86 20.3599C156.36 20.0699 155.97 19.6599 155.68 19.1399C155.39 18.6199 155.25 18.0199 155.25 17.3499C155.25 16.6799 155.4 16.0999 155.68 15.5799C155.97 15.0599 156.36 14.6499 156.86 14.3599C157.36 14.0699 157.91 13.9199 158.53 13.9199C159.11 13.9199 159.64 14.0599 160.12 14.3399C160.6 14.6199 160.98 15.0099 161.26 15.4999C161.54 15.9899 161.68 16.5399 161.68 17.1599C161.68 17.3199 161.68 17.4599 161.66 17.5899C161.65 17.7199 161.63 17.8099 161.61 17.8599H156.54C156.58 18.2199 156.7 18.5399 156.88 18.8199C157.06 19.0999 157.3 19.3099 157.58 19.4599C157.87 19.6099 158.18 19.6799 158.52 19.6799C158.89 19.6799 159.21 19.5999 159.49 19.4399C159.77 19.2799 159.99 19.0599 160.14 18.7899H161.47C161.34 19.1799 161.14 19.5199 160.87 19.8199C160.6 20.1199 160.27 20.3599 159.88 20.5399C159.48 20.7199 159.03 20.8099 158.52 20.8099L158.53 20.7999ZM160.39 16.8499C160.37 16.5099 160.28 16.1999 160.11 15.9199C159.94 15.6399 159.72 15.4299 159.44 15.2699C159.16 15.1099 158.86 15.0299 158.52 15.0299C158.17 15.0299 157.85 15.1099 157.56 15.2699C157.27 15.4299 157.04 15.6399 156.87 15.9199C156.69 16.1899 156.58 16.4999 156.53 16.8599H160.38L160.39 16.8499Z" fill="#0A0A0A"></path><path d="M77 32.57V25.95H78.29V30.77H78.55L80.82 25.95H82.73V32.57H81.44V27.75H81.18L78.91 32.57H77Z" fill="#0A0A0A"></path><path d="M87.94 32.57V25.95H89.23V28.9799L91.98 25.95H93.55L90.56 29.19L93.68 32.57H92.11L89.23 29.41V32.57H87.94Z" fill="#0A0A0A"></path><path d="M94.82 35.2101V25.9501H95.94L96.07 26.7901H96.14C96.38 26.4801 96.67 26.2401 97.01 26.0701C97.35 25.9001 97.74 25.8101 98.18 25.8101C98.75 25.8101 99.27 25.9501 99.73 26.2401C100.2 26.5301 100.56 26.9401 100.84 27.4601C101.11 27.9801 101.25 28.5801 101.25 29.2401C101.25 29.9001 101.11 30.5201 100.84 31.0401C100.57 31.5601 100.2 31.9701 99.73 32.2601C99.26 32.5501 98.75 32.6901 98.18 32.6901C97.75 32.6901 97.37 32.6101 97.03 32.4401C96.69 32.2701 96.41 32.0401 96.18 31.7501H96.11V35.1901H94.82V35.2101ZM98.03 31.5101C98.37 31.5101 98.69 31.4201 98.99 31.2301C99.28 31.0401 99.52 30.7801 99.69 30.4401C99.86 30.1001 99.95 29.7101 99.95 29.2601C99.95 28.8101 99.86 28.4301 99.69 28.0901C99.52 27.7501 99.29 27.4901 98.99 27.3001C98.7 27.1101 98.38 27.0201 98.03 27.0201C97.68 27.0201 97.36 27.1101 97.07 27.3001C96.78 27.4901 96.55 27.7501 96.37 28.0901C96.19 28.4301 96.11 28.8201 96.11 29.2601C96.11 29.7001 96.2 30.1001 96.37 30.4401C96.55 30.7801 96.78 31.0401 97.07 31.2301C97.36 31.4201 97.68 31.5101 98.03 31.5101Z" fill="#0A0A0A"></path><path d="M105.79 32.7101C105.18 32.7101 104.62 32.5601 104.12 32.2701C103.62 31.9801 103.23 31.5701 102.94 31.0501C102.65 30.5301 102.51 29.9301 102.51 29.2601C102.51 28.5901 102.66 28.0101 102.94 27.4901C103.23 26.9701 103.62 26.5601 104.12 26.2701C104.62 25.9801 105.17 25.8301 105.79 25.8301C106.37 25.8301 106.9 25.9701 107.38 26.2501C107.86 26.5301 108.24 26.9201 108.52 27.4101C108.8 27.9001 108.94 28.4501 108.94 29.0701C108.94 29.2301 108.94 29.3701 108.92 29.5001C108.91 29.6301 108.89 29.7201 108.87 29.7701H103.8C103.84 30.1301 103.96 30.4501 104.14 30.7301C104.32 31.0101 104.56 31.2201 104.84 31.3701C105.13 31.5201 105.44 31.5901 105.78 31.5901C106.15 31.5901 106.47 31.5101 106.75 31.3501C107.03 31.1901 107.25 30.9701 107.4 30.7001H108.73C108.6 31.0901 108.4 31.4301 108.13 31.7301C107.86 32.0301 107.53 32.2701 107.14 32.4501C106.74 32.6301 106.29 32.7201 105.78 32.7201L105.79 32.7101ZM107.65 28.7601C107.63 28.4201 107.54 28.1101 107.37 27.8301C107.2 27.5501 106.98 27.3401 106.7 27.1801C106.42 27.0201 106.12 26.9401 105.78 26.9401C105.43 26.9401 105.11 27.0201 104.82 27.1801C104.53 27.3401 104.3 27.5501 104.13 27.8301C103.95 28.1001 103.84 28.4101 103.79 28.7701H107.64L107.65 28.7601Z" fill="#0A0A0A"></path><path d="M113.29 32.7101C112.71 32.7101 112.19 32.5701 111.72 32.2801C111.25 31.9901 110.89 31.5801 110.61 31.0601C110.33 30.5401 110.2 29.9401 110.2 29.2601C110.2 28.5801 110.34 28.0001 110.61 27.4801C110.88 26.9601 111.25 26.5501 111.72 26.2601C112.19 25.9701 112.71 25.8301 113.29 25.8301C113.73 25.8301 114.12 25.9201 114.46 26.0901C114.8 26.2601 115.09 26.5001 115.33 26.8101H115.4L115.53 25.9701H116.64V32.5901H115.53L115.4 31.7501H115.33C115.09 32.0601 114.81 32.3001 114.47 32.4701C114.13 32.6401 113.74 32.7301 113.29 32.7301V32.7101ZM113.44 31.5101C113.78 31.5101 114.1 31.4201 114.39 31.2301C114.68 31.0401 114.92 30.7801 115.09 30.4401C115.26 30.1001 115.35 29.7101 115.35 29.2601C115.35 28.8101 115.26 28.4301 115.09 28.0901C114.92 27.7501 114.69 27.4901 114.39 27.3001C114.1 27.1101 113.78 27.0201 113.44 27.0201C113.1 27.0201 112.77 27.1101 112.47 27.3001C112.18 27.4901 111.94 27.7501 111.77 28.0901C111.6 28.4301 111.51 28.8201 111.51 29.2601C111.51 29.7001 111.6 30.1001 111.77 30.4401C111.94 30.7801 112.17 31.0401 112.47 31.2301C112.76 31.4201 113.09 31.5101 113.44 31.5101Z" fill="#0A0A0A"></path><path d="M120.13 32.5699V27.1399H117.94V25.9399H123.6V27.1399H121.41V32.5699H120.12H120.13Z" fill="#0A0A0A"></path><path d="M124.92 32.57V25.95H126.21V30.77H126.47L128.74 25.95H130.65V32.57H129.36V27.75H129.1L126.83 32.57H124.92Z" fill="#0A0A0A"></path><path d="M132.62 32.57V25.95H136.19C136.57 25.95 136.9 26.03 137.19 26.19C137.48 26.35 137.71 26.57 137.87 26.84C138.03 27.12 138.11 27.4399 138.11 27.8099C138.11 28.1399 138.03 28.43 137.87 28.67C137.71 28.91 137.53 29.09 137.32 29.19V29.26C137.55 29.35 137.76 29.52 137.95 29.77C138.14 30.02 138.24 30.3399 138.24 30.7099C138.24 31.0499 138.15 31.3699 137.98 31.65C137.81 31.9399 137.58 32.16 137.29 32.33C137 32.5 136.68 32.58 136.32 32.58H132.62V32.57ZM135.93 28.7099C136.09 28.7099 136.23 28.67 136.36 28.6C136.49 28.52 136.6 28.42 136.68 28.29C136.76 28.16 136.8 28.01 136.8 27.84C136.8 27.59 136.72 27.3799 136.55 27.2099C136.38 27.0499 136.18 26.9699 135.93 26.9699H133.91V28.7099H135.93ZM136.05 31.54C136.21 31.54 136.35 31.5 136.49 31.42C136.63 31.34 136.73 31.23 136.81 31.1C136.89 30.96 136.93 30.8099 136.93 30.6299C136.93 30.3699 136.84 30.15 136.67 29.99C136.5 29.82 136.29 29.74 136.04 29.74H133.91V31.54H136.04H136.05Z" fill="#0A0A0A"></path><path d="M142.79 32.7101C142.18 32.7101 141.62 32.5601 141.12 32.2701C140.62 31.9801 140.23 31.5701 139.94 31.0501C139.65 30.5301 139.51 29.9301 139.51 29.2601C139.51 28.5901 139.66 28.0101 139.94 27.4901C140.23 26.9701 140.62 26.5601 141.12 26.2701C141.62 25.9801 142.17 25.8301 142.79 25.8301C143.37 25.8301 143.9 25.9701 144.38 26.2501C144.86 26.5301 145.24 26.9201 145.52 27.4101C145.8 27.9001 145.94 28.4501 145.94 29.0701C145.94 29.2301 145.94 29.3701 145.92 29.5001C145.91 29.6301 145.89 29.7201 145.87 29.7701H140.8C140.84 30.1301 140.96 30.4501 141.14 30.7301C141.32 31.0101 141.56 31.2201 141.84 31.3701C142.13 31.5201 142.44 31.5901 142.78 31.5901C143.15 31.5901 143.47 31.5101 143.75 31.3501C144.03 31.1901 144.25 30.9701 144.4 30.7001H145.73C145.6 31.0901 145.4 31.4301 145.13 31.7301C144.86 32.0301 144.53 32.2701 144.14 32.4501C143.74 32.6301 143.29 32.7201 142.78 32.7201L142.79 32.7101ZM144.65 28.7601C144.63 28.4201 144.54 28.1101 144.37 27.8301C144.2 27.5501 143.98 27.3401 143.7 27.1801C143.42 27.0201 143.12 26.9401 142.78 26.9401C142.43 26.9401 142.11 27.0201 141.82 27.1801C141.53 27.3401 141.3 27.5501 141.13 27.8301C140.95 28.1001 140.84 28.4101 140.79 28.7701H144.64L144.65 28.7601Z" fill="#0A0A0A"></path></g><defs><clipPath id="clip0_286_45"><rect width="68" height="37" fill="white"></rect></clipPath><clipPath id="clip1_286_45"><rect width="84.68" height="33.21" fill="white" transform="translate(77 2)"></rect></clipPath></defs></svg> 